<?xml version="1.0" encoding="UTF-8"?>
<svg xmlns="http://www.w3.org/2000/svg" xmlns:xlink="http://www.w3.org/1999/xlink" width="32px" height="32px" viewBox="0 0 32 32" version="1.1">
<g id="surface1">
<path style=" stroke:none;fill-rule:nonzero;fill:rgb(100%,100%,100%);fill-opacity:1;" d="M 31.453125 19.554688 C 32.019531 19.179688 32.167969 18.414062 31.792969 17.851562 L 27.492188 11.421875 C 26.921875 10.570312 26.050781 10.125 25.136719 10.125 L 23.292969 10.125 C 22.230469 10.125 21.386719 10.765625 20.847656 11.601562 C 20.792969 11.683594 21.113281 11.191406 16.644531 17.851562 C 16.265625 18.414062 16.417969 19.175781 16.980469 19.554688 C 17.542969 19.933594 18.304688 19.785156 18.683594 19.21875 L 20.527344 16.476562 L 20.53125 28.941406 C 20.53125 29.789062 21.21875 30.476562 22.066406 30.476562 C 22.914062 30.476562 23.601562 29.789062 23.601562 28.941406 L 23.601562 22.027344 L 24.832031 22.027344 L 24.832031 28.941406 C 24.832031 29.789062 25.519531 30.476562 26.367188 30.476562 C 27.214844 30.476562 27.902344 29.789062 27.902344 28.941406 C 27.902344 15.691406 27.902344 16.554688 27.902344 16.453125 L 29.75 19.21875 C 30.128906 19.78125 30.890625 19.933594 31.453125 19.554688 Z M 31.453125 19.554688 "/>
<path style=" stroke:none;fill-rule:nonzero;fill:rgb(100%,100%,100%);fill-opacity:1;" d="M 24.21875 8.933594 C 25.84375 8.933594 27.164062 7.617188 27.164062 5.988281 C 27.164062 4.929688 26.601562 4 25.757812 3.480469 C 25.933594 3.359375 26.136719 3.246094 26.375 3.148438 C 26.476562 3.105469 26.542969 3.011719 26.546875 2.902344 C 26.554688 2.792969 26.496094 2.695312 26.398438 2.644531 C 25.933594 2.402344 25.367188 2.398438 24.832031 2.5 C 24.921875 2.328125 25.035156 2.15625 25.183594 1.980469 C 25.253906 1.894531 25.265625 1.78125 25.21875 1.679688 C 25.171875 1.582031 25.074219 1.519531 24.964844 1.523438 C 23.890625 1.535156 22.902344 2.625 22.507812 3.277344 C 22.417969 3.429688 22.347656 3.589844 22.304688 3.753906 C 21.675781 4.292969 21.273438 5.09375 21.273438 5.988281 C 21.273438 7.617188 22.589844 8.933594 24.21875 8.933594 Z M 24.21875 8.933594 "/>
<path style=" stroke:none;fill-rule:nonzero;fill:rgb(100%,100%,100%);fill-opacity:1;" d="M 11.105469 11.53125 C 10.578125 10.726562 9.734375 10.125 8.699219 10.125 L 6.855469 10.125 C 5.808594 10.125 4.894531 10.710938 4.425781 11.574219 C 4.367188 11.65625 0.265625 17.765625 0.207031 17.851562 C -0.167969 18.414062 -0.0195312 19.175781 0.542969 19.554688 C 1.105469 19.933594 1.871094 19.785156 2.25 19.21875 L 4.09375 16.476562 L 4.09375 16.507812 L 2.417969 23.328125 C 2.339844 23.648438 2.414062 23.984375 2.617188 24.242188 C 2.816406 24.5 3.128906 24.648438 3.453125 24.648438 L 4.097656 24.648438 L 4.097656 28.941406 C 4.097656 29.789062 4.785156 30.476562 5.632812 30.476562 C 6.480469 30.476562 7.167969 29.789062 7.167969 28.941406 L 7.167969 24.648438 L 8.398438 24.648438 L 8.398438 28.941406 C 8.398438 29.789062 9.085938 30.476562 9.933594 30.476562 C 10.78125 30.476562 11.46875 29.789062 11.46875 28.941406 L 11.46875 24.648438 L 12.101562 24.648438 C 12.429688 24.648438 12.738281 24.5 12.941406 24.242188 C 13.144531 23.984375 13.214844 23.648438 13.136719 23.328125 L 11.464844 16.507812 L 11.464844 16.464844 L 13.316406 19.21875 C 13.695312 19.785156 14.457031 19.933594 15.019531 19.554688 C 15.582031 19.175781 15.734375 18.414062 15.355469 17.851562 C 10.816406 11.089844 11.160156 11.609375 11.105469 11.53125 Z M 11.105469 11.53125 "/>
<path style=" stroke:none;fill-rule:nonzero;fill:rgb(100%,100%,100%);fill-opacity:1;" d="M 1.90625 9.835938 C 2.015625 9.84375 2.117188 9.789062 2.171875 9.695312 C 2.980469 8.269531 4.25 8.390625 4.535156 7.863281 C 4.574219 7.789062 4.605469 7.714844 4.625 7.636719 C 4.714844 7.730469 4.835938 7.785156 4.964844 7.785156 C 5.015625 7.785156 5.066406 7.777344 5.117188 7.761719 C 5.203125 7.730469 5.273438 7.675781 5.324219 7.609375 C 5.851562 8.410156 6.753906 8.933594 7.78125 8.933594 C 8.808594 8.933594 9.714844 8.410156 10.242188 7.609375 C 10.292969 7.675781 10.363281 7.730469 10.449219 7.761719 C 10.5 7.777344 10.550781 7.785156 10.601562 7.785156 C 10.730469 7.785156 10.851562 7.730469 10.9375 7.636719 C 10.960938 7.714844 10.992188 7.789062 11.03125 7.863281 C 11.316406 8.390625 12.585938 8.269531 13.394531 9.695312 C 13.445312 9.789062 13.550781 9.84375 13.65625 9.835938 C 13.765625 9.828125 13.859375 9.757812 13.898438 9.652344 C 14.265625 8.644531 13.59375 7.332031 13.121094 6.734375 C 12.714844 6.21875 12.089844 5.941406 11.511719 6.253906 C 11.492188 6.265625 11.472656 6.277344 11.453125 6.289062 L 11.457031 6.277344 C 11.542969 6.035156 11.417969 5.773438 11.175781 5.6875 C 11.011719 5.628906 10.839844 5.671875 10.71875 5.78125 C 10.609375 4.253906 9.335938 3.046875 7.78125 3.046875 C 6.226562 3.046875 4.953125 4.253906 4.847656 5.78125 C 4.726562 5.671875 4.550781 5.628906 4.386719 5.6875 C 4.148438 5.773438 4.023438 6.035156 4.105469 6.277344 L 4.113281 6.289062 C 4.09375 6.277344 4.074219 6.265625 4.050781 6.253906 C 3.476562 5.941406 2.851562 6.21875 2.445312 6.734375 C 1.972656 7.332031 1.300781 8.644531 1.667969 9.652344 C 1.707031 9.757812 1.796875 9.828125 1.90625 9.835938 Z M 1.90625 9.835938 "/>
</g>
</svg>
