<?xml version="1.0" encoding="UTF-8"?>
<svg xmlns="http://www.w3.org/2000/svg" xmlns:xlink="http://www.w3.org/1999/xlink" width="px" height="32px" viewBox="0 0 32 32" version="1.1">
<g id="surface1">
<path style="fill:none;stroke-width:1.5;stroke-linecap:round;stroke-linejoin:round;stroke:rgb(100%,100%,100%);stroke-opacity:1;stroke-miterlimit:4;" d="M 17.220703 20.15918 L 6.999023 20.15918 C 6.342773 20.15918 5.727539 19.836914 5.352539 19.294922 C 4.980469 18.755859 4.895508 18.064453 5.129883 17.449219 L 7.060547 12.310547 C 7.347656 11.52832 8.088867 11.006836 8.920898 11.000977 L 15.290039 11.000977 C 16.12793 10.998047 16.87793 11.516602 17.170898 12.298828 L 19.089844 17.44043 C 19.327148 18.055664 19.245117 18.75 18.873047 19.291992 C 18.498047 19.836914 17.879883 20.162109 17.220703 20.15918 Z M 17.220703 20.15918 " transform="matrix(1.333333,0,0,1.333333,0,0)"/>
<path style="fill:none;stroke-width:1.5;stroke-linecap:round;stroke-linejoin:bevel;stroke:rgb(100%,100%,100%);stroke-opacity:1;stroke-miterlimit:4;" d="M 14.109375 15.588867 C 14.109375 16.693359 13.21582 17.589844 12.111328 17.589844 C 11.006836 17.589844 10.110352 16.693359 10.110352 15.588867 C 10.110352 14.484375 11.006836 13.59082 12.111328 13.59082 C 13.21582 13.59082 14.109375 14.484375 14.109375 15.588867 Z M 14.109375 15.588867 " transform="matrix(1.333333,0,0,1.333333,0,0)"/>
<path style="fill:none;stroke-width:1.5;stroke-linecap:round;stroke-linejoin:round;stroke:rgb(100%,100%,100%);stroke-opacity:1;stroke-miterlimit:4;" d="M 2.080078 5.730469 L 2.080078 8.109375 C 2.080078 9.213867 2.976562 10.110352 4.081055 10.110352 L 5.000977 10.110352 C 6.105469 10.110352 6.999023 9.213867 6.999023 8.109375 L 6.999023 6.84082 C 10.300781 6.18457 13.699219 6.18457 17.000977 6.84082 L 17.000977 8.109375 C 17.000977 9.213867 17.894531 10.110352 18.999023 10.110352 L 19.889648 10.110352 C 20.994141 10.110352 21.890625 9.213867 21.890625 8.109375 L 21.890625 5.730469 C 21.899414 5.244141 21.556641 4.822266 21.079102 4.731445 C 15.067383 3.518555 8.874023 3.518555 2.859375 4.731445 C 2.393555 4.833984 2.068359 5.25293 2.080078 5.730469 Z M 2.080078 5.730469 " transform="matrix(1.333333,0,0,1.333333,0,0)"/>
</g>
</svg>
