<?xml version="1.0" encoding="UTF-8"?>
<svg xmlns="http://www.w3.org/2000/svg" xmlns:xlink="http://www.w3.org/1999/xlink" width="px" height="32px" viewBox="0 0 32 32" version="1.1">
<g id="surface1">
<path style=" stroke:none;fill-rule:nonzero;fill:rgb(100%,100%,100%);fill-opacity:1;" d="M 17.28125 24.371094 L 4.355469 24.371094 C 3.5625 24.371094 2.921875 24.882812 2.921875 25.515625 L 2.921875 25.546875 C 2.921875 26.179688 3.5625 26.691406 4.355469 26.691406 L 17.28125 26.691406 C 18.074219 26.691406 18.71875 26.179688 18.71875 25.546875 L 18.71875 25.515625 C 18.71875 24.882812 18.074219 24.371094 17.28125 24.371094 Z M 17.28125 24.371094 "/>
<path style=" stroke:none;fill-rule:nonzero;fill:rgb(100%,100%,100%);fill-opacity:1;" d="M 6.117188 17.742188 C 5.890625 17.742188 5.707031 17.925781 5.707031 18.152344 C 5.707031 18.382812 5.890625 18.566406 6.117188 18.566406 C 6.347656 18.566406 6.53125 18.382812 6.53125 18.152344 C 6.53125 17.925781 6.347656 17.742188 6.117188 17.742188 Z M 6.117188 17.742188 "/>
<path style=" stroke:none;fill-rule:nonzero;fill:rgb(100%,100%,100%);fill-opacity:1;" d="M 9.214844 17.742188 C 8.984375 17.742188 8.800781 17.925781 8.800781 18.152344 C 8.800781 18.382812 8.984375 18.566406 9.214844 18.566406 C 9.441406 18.566406 9.625 18.382812 9.625 18.152344 C 9.625 17.925781 9.441406 17.742188 9.214844 17.742188 Z M 9.214844 17.742188 "/>
<path style=" stroke:none;fill-rule:nonzero;fill:rgb(100%,100%,100%);fill-opacity:1;" d="M 7.769531 16.503906 C 7.539062 16.503906 7.355469 16.6875 7.355469 16.914062 C 7.355469 17.144531 7.539062 17.328125 7.769531 17.328125 C 7.996094 17.328125 8.179688 17.144531 8.179688 16.914062 C 8.179688 16.6875 7.996094 16.503906 7.769531 16.503906 Z M 7.769531 16.503906 "/>
<path style=" stroke:none;fill-rule:nonzero;fill:rgb(100%,100%,100%);fill-opacity:1;" d="M 10.039062 16.398438 C 10.039062 16.628906 10.222656 16.8125 10.449219 16.8125 C 10.679688 16.8125 10.863281 16.628906 10.863281 16.398438 C 10.863281 16.171875 10.679688 15.988281 10.449219 15.988281 C 10.222656 15.988281 10.039062 16.171875 10.039062 16.398438 Z M 10.039062 16.398438 "/>
<path style=" stroke:none;fill-rule:nonzero;fill:rgb(100%,100%,100%);fill-opacity:1;" d="M 11.996094 18.667969 C 12.226562 18.667969 12.410156 18.484375 12.410156 18.257812 C 12.410156 18.027344 12.226562 17.84375 11.996094 17.84375 C 11.769531 17.84375 11.585938 18.027344 11.585938 18.257812 C 11.585938 18.484375 11.769531 18.667969 11.996094 18.667969 Z M 11.996094 18.667969 "/>
<path style=" stroke:none;fill-rule:nonzero;fill:rgb(100%,100%,100%);fill-opacity:1;" d="M 13.339844 17.324219 C 13.566406 17.324219 13.75 17.140625 13.75 16.910156 C 13.75 16.683594 13.566406 16.5 13.339844 16.5 C 13.109375 16.5 12.925781 16.683594 12.925781 16.910156 C 12.925781 17.140625 13.109375 17.324219 13.339844 17.324219 Z M 13.339844 17.324219 "/>
<path style=" stroke:none;fill-rule:nonzero;fill:rgb(100%,100%,100%);fill-opacity:1;" d="M 15.402344 18.667969 C 15.628906 18.667969 15.816406 18.484375 15.816406 18.257812 C 15.816406 18.027344 15.628906 17.84375 15.402344 17.84375 C 15.175781 17.84375 14.988281 18.027344 14.988281 18.257812 C 14.988281 18.484375 15.175781 18.667969 15.402344 18.667969 Z M 15.402344 18.667969 "/>
<path style=" stroke:none;fill-rule:nonzero;fill:rgb(100%,100%,100%);fill-opacity:1;" d="M 18.847656 22.824219 C 18.894531 22.8125 18.945312 22.804688 19.011719 22.804688 C 19.296875 22.804688 19.527344 22.574219 19.527344 22.289062 C 19.527344 22.003906 19.296875 21.773438 19.011719 21.773438 C 18.832031 21.773438 18.660156 21.800781 18.503906 21.851562 C 18.367188 21.898438 18.242188 21.960938 18.136719 22.03125 C 17.953125 22.15625 17.8125 22.300781 17.699219 22.429688 C 17.613281 22.527344 17.539062 22.617188 17.46875 22.695312 C 17.371094 22.8125 17.285156 22.890625 17.207031 22.9375 C 17.167969 22.960938 17.128906 22.976562 17.085938 22.988281 C 17.042969 23 16.992188 23.011719 16.921875 23.011719 C 16.84375 23.011719 16.789062 23 16.738281 22.984375 C 16.695312 22.96875 16.660156 22.949219 16.617188 22.925781 C 16.550781 22.878906 16.472656 22.804688 16.382812 22.703125 C 16.316406 22.625 16.242188 22.535156 16.15625 22.4375 C 16.027344 22.292969 15.871094 22.128906 15.652344 21.992188 C 15.542969 21.925781 15.414062 21.871094 15.277344 21.832031 C 15.140625 21.792969 14.992188 21.773438 14.835938 21.773438 C 14.652344 21.773438 14.480469 21.800781 14.324219 21.851562 C 14.1875 21.898438 14.066406 21.960938 13.960938 22.03125 C 13.773438 22.15625 13.632812 22.296875 13.519531 22.429688 C 13.433594 22.527344 13.359375 22.617188 13.292969 22.695312 C 13.191406 22.808594 13.105469 22.890625 13.027344 22.9375 C 12.988281 22.960938 12.953125 22.976562 12.910156 22.988281 C 12.867188 23 12.8125 23.011719 12.746094 23.011719 C 12.664062 23.011719 12.609375 23 12.5625 22.984375 C 12.519531 22.96875 12.480469 22.949219 12.441406 22.925781 C 12.371094 22.878906 12.292969 22.804688 12.203125 22.703125 C 12.136719 22.625 12.0625 22.535156 11.980469 22.4375 C 11.851562 22.292969 11.695312 22.128906 11.472656 21.992188 C 11.363281 21.925781 11.238281 21.871094 11.097656 21.832031 C 10.960938 21.792969 10.8125 21.773438 10.65625 21.773438 C 10.476562 21.773438 10.300781 21.800781 10.148438 21.851562 C 10.011719 21.894531 9.886719 21.960938 9.78125 22.03125 C 9.59375 22.15625 9.457031 22.296875 9.34375 22.429688 C 9.257812 22.527344 9.183594 22.617188 9.113281 22.695312 C 9.011719 22.808594 8.925781 22.890625 8.851562 22.9375 C 8.8125 22.960938 8.773438 22.976562 8.730469 22.988281 C 8.6875 23 8.636719 23.011719 8.566406 23.011719 C 8.488281 23.011719 8.429688 23 8.382812 22.984375 C 8.339844 22.96875 8.304688 22.949219 8.265625 22.921875 C 8.195312 22.878906 8.117188 22.804688 8.027344 22.703125 C 7.960938 22.625 7.886719 22.535156 7.800781 22.4375 C 7.675781 22.292969 7.515625 22.128906 7.296875 21.992188 C 7.1875 21.925781 7.058594 21.871094 6.921875 21.832031 C 6.785156 21.792969 6.636719 21.773438 6.480469 21.773438 C 6.296875 21.773438 6.125 21.800781 5.96875 21.851562 C 5.832031 21.894531 5.710938 21.960938 5.605469 22.03125 C 5.417969 22.15625 5.28125 22.296875 5.164062 22.429688 C 5.078125 22.527344 5.003906 22.617188 4.9375 22.695312 C 4.835938 22.8125 4.75 22.890625 4.671875 22.9375 C 4.632812 22.960938 4.597656 22.976562 4.554688 22.988281 C 4.511719 23 4.457031 23.007812 4.390625 23.011719 C 4.308594 23.007812 4.253906 23 4.207031 22.984375 C 4.164062 22.96875 4.125 22.949219 4.085938 22.921875 C 4.015625 22.878906 3.9375 22.804688 3.851562 22.703125 C 3.78125 22.625 3.710938 22.535156 3.625 22.4375 C 3.496094 22.292969 3.339844 22.128906 3.117188 21.992188 C 3.007812 21.925781 2.882812 21.871094 2.746094 21.832031 C 2.605469 21.792969 2.457031 21.773438 2.300781 21.773438 C 2.015625 21.773438 1.785156 22.003906 1.785156 22.289062 C 1.785156 22.574219 2.015625 22.804688 2.300781 22.804688 C 2.382812 22.804688 2.4375 22.816406 2.484375 22.832031 C 2.527344 22.84375 2.566406 22.863281 2.605469 22.890625 C 2.675781 22.933594 2.753906 23.007812 2.84375 23.109375 C 2.910156 23.1875 2.980469 23.277344 3.066406 23.375 C 3.195312 23.519531 3.351562 23.683594 3.574219 23.820312 C 3.683594 23.886719 3.808594 23.941406 3.945312 23.980469 C 4.085938 24.019531 4.234375 24.042969 4.390625 24.042969 C 4.570312 24.042969 4.742188 24.015625 4.898438 23.960938 C 5.035156 23.917969 5.15625 23.855469 5.265625 23.78125 C 5.449219 23.660156 5.589844 23.515625 5.703125 23.382812 C 5.789062 23.285156 5.863281 23.195312 5.929688 23.117188 C 6.03125 23.003906 6.117188 22.921875 6.195312 22.875 C 6.234375 22.851562 6.269531 22.835938 6.316406 22.824219 C 6.359375 22.8125 6.410156 22.804688 6.480469 22.804688 C 6.558594 22.804688 6.613281 22.816406 6.664062 22.832031 C 6.707031 22.84375 6.742188 22.863281 6.78125 22.890625 C 6.851562 22.933594 6.929688 23.007812 7.019531 23.109375 C 7.085938 23.1875 7.160156 23.277344 7.246094 23.375 C 7.371094 23.519531 7.53125 23.683594 7.75 23.820312 C 7.859375 23.886719 7.984375 23.941406 8.125 23.980469 C 8.261719 24.019531 8.410156 24.042969 8.566406 24.042969 C 8.75 24.042969 8.921875 24.015625 9.078125 23.960938 C 9.214844 23.917969 9.335938 23.855469 9.441406 23.78125 C 9.628906 23.660156 9.765625 23.515625 9.882812 23.382812 C 9.96875 23.285156 10.042969 23.195312 10.109375 23.117188 C 10.210938 23.003906 10.296875 22.921875 10.375 22.875 C 10.410156 22.851562 10.449219 22.835938 10.492188 22.824219 C 10.535156 22.8125 10.585938 22.804688 10.65625 22.804688 C 10.734375 22.804688 10.792969 22.816406 10.839844 22.832031 C 10.882812 22.84375 10.921875 22.863281 10.960938 22.890625 C 11.03125 22.933594 11.105469 23.007812 11.195312 23.109375 C 11.265625 23.1875 11.335938 23.277344 11.421875 23.375 C 11.550781 23.519531 11.707031 23.683594 11.929688 23.820312 C 12.039062 23.886719 12.164062 23.941406 12.300781 23.980469 C 12.441406 24.019531 12.589844 24.042969 12.746094 24.042969 C 12.925781 24.042969 13.097656 24.015625 13.253906 23.960938 C 13.390625 23.917969 13.511719 23.855469 13.621094 23.78125 C 13.804688 23.660156 13.945312 23.515625 14.058594 23.382812 C 14.144531 23.285156 14.21875 23.195312 14.285156 23.117188 C 14.386719 23.003906 14.472656 22.921875 14.550781 22.875 C 14.589844 22.851562 14.625 22.835938 14.671875 22.824219 C 14.714844 22.8125 14.765625 22.804688 14.835938 22.804688 C 14.914062 22.804688 14.96875 22.816406 15.019531 22.832031 C 15.0625 22.84375 15.097656 22.863281 15.136719 22.890625 C 15.207031 22.933594 15.285156 23.007812 15.375 23.109375 C 15.441406 23.1875 15.515625 23.277344 15.601562 23.375 C 15.726562 23.519531 15.886719 23.683594 16.105469 23.820312 C 16.214844 23.886719 16.339844 23.941406 16.480469 23.980469 C 16.617188 24.019531 16.765625 24.042969 16.921875 24.042969 C 17.105469 24.042969 17.277344 24.011719 17.433594 23.960938 C 17.570312 23.917969 17.691406 23.855469 17.796875 23.78125 C 17.984375 23.660156 18.121094 23.515625 18.238281 23.382812 C 18.324219 23.285156 18.398438 23.195312 18.464844 23.117188 C 18.566406 23.003906 18.652344 22.921875 18.730469 22.875 C 18.769531 22.851562 18.804688 22.835938 18.847656 22.824219 Z M 18.847656 22.824219 "/>
<path style=" stroke:none;fill-rule:nonzero;fill:rgb(100%,100%,100%);fill-opacity:1;" d="M 30.464844 7.519531 L 25.859375 7.519531 L 26.828125 3.078125 L 30.207031 1.113281 L 29.5625 0 L 25.6875 2.25 L 24.542969 7.519531 L 14.214844 7.519531 L 14.753906 14.542969 C 13.53125 14.082031 12.152344 13.8125 10.691406 13.8125 C 8.414062 13.8125 6.339844 14.460938 4.746094 15.488281 C 3.949219 16.003906 3.273438 16.617188 2.757812 17.300781 C 2.359375 17.832031 2.058594 18.410156 1.878906 19.015625 L 1.839844 19.015625 L 1.75 19.550781 C 1.75 19.570312 1.746094 19.578125 1.746094 19.582031 L 1.746094 19.585938 C 1.742188 19.59375 1.738281 19.605469 1.730469 19.632812 C 1.722656 19.65625 1.714844 19.6875 1.710938 19.71875 C 1.699219 19.765625 1.695312 19.808594 1.695312 19.847656 C 1.691406 19.886719 1.691406 19.921875 1.691406 19.964844 C 1.691406 20.171875 1.71875 20.375 1.789062 20.570312 C 1.839844 20.714844 1.914062 20.855469 2.011719 20.976562 C 2.160156 21.160156 2.359375 21.304688 2.570312 21.386719 C 2.78125 21.472656 3.003906 21.507812 3.230469 21.507812 L 18.148438 21.507812 C 18.347656 21.507812 18.546875 21.480469 18.738281 21.414062 C 18.882812 21.363281 19.019531 21.292969 19.144531 21.195312 C 19.328125 21.054688 19.476562 20.855469 19.5625 20.640625 C 19.652344 20.425781 19.6875 20.199219 19.6875 19.964844 C 19.6875 19.90625 19.6875 19.859375 19.679688 19.800781 C 19.675781 19.757812 19.667969 19.699219 19.65625 19.65625 C 19.644531 19.621094 19.636719 19.597656 19.636719 19.589844 L 19.632812 19.585938 C 19.632812 19.582031 19.632812 19.574219 19.628906 19.550781 C 19.492188 18.75 19.136719 17.988281 18.621094 17.300781 C 17.992188 16.464844 17.125 15.738281 16.089844 15.164062 L 15.601562 8.804688 L 29.074219 8.804688 L 27.601562 27.996094 L 19.320312 27.996094 C 19.171875 27.832031 18.984375 27.695312 18.769531 27.601562 C 18.546875 27.507812 18.304688 27.464844 18.050781 27.464844 L 3.332031 27.464844 C 3.035156 27.464844 2.742188 27.527344 2.492188 27.660156 C 2.304688 27.757812 2.140625 27.894531 2.015625 28.050781 C 1.820312 28.285156 1.703125 28.550781 1.632812 28.820312 C 1.5625 29.09375 1.535156 29.371094 1.535156 29.65625 L 1.535156 29.808594 C 1.535156 30.410156 1.78125 30.964844 2.179688 31.359375 C 2.574219 31.753906 3.125 32 3.726562 32 L 17.652344 32 C 18.253906 32 18.804688 31.753906 19.199219 31.359375 C 19.597656 30.964844 19.84375 30.410156 19.84375 29.808594 L 19.84375 29.65625 C 19.84375 29.53125 19.835938 29.40625 19.824219 29.28125 L 28.792969 29.28125 Z M 15.933594 16.570312 C 16.617188 17.011719 17.183594 17.527344 17.59375 18.074219 C 18.003906 18.625 18.261719 19.195312 18.359375 19.765625 C 18.371094 19.832031 18.382812 19.886719 18.394531 19.9375 C 18.398438 19.941406 18.398438 19.949219 18.398438 19.953125 C 18.398438 19.957031 18.402344 19.960938 18.402344 19.964844 C 18.402344 20.054688 18.386719 20.109375 18.378906 20.140625 C 18.371094 20.164062 18.363281 20.171875 18.359375 20.175781 C 18.355469 20.179688 18.355469 20.183594 18.328125 20.195312 C 18.300781 20.207031 18.242188 20.21875 18.148438 20.21875 L 3.230469 20.21875 C 3.144531 20.21875 3.089844 20.207031 3.0625 20.199219 C 3.039062 20.191406 3.03125 20.183594 3.023438 20.179688 C 3.019531 20.175781 3.019531 20.175781 3.003906 20.148438 C 2.996094 20.128906 2.984375 20.082031 2.980469 20.011719 L 3.019531 19.765625 C 3.117188 19.199219 3.375 18.625 3.785156 18.074219 C 4.402344 17.253906 5.363281 16.503906 6.558594 15.964844 C 7.75 15.425781 9.167969 15.097656 10.691406 15.097656 C 12.71875 15.097656 14.566406 15.683594 15.933594 16.570312 Z M 18.554688 29.808594 C 18.554688 30.0625 18.457031 30.28125 18.292969 30.449219 C 18.125 30.613281 17.902344 30.710938 17.652344 30.714844 L 3.726562 30.714844 C 3.476562 30.710938 3.253906 30.613281 3.089844 30.449219 C 2.925781 30.28125 2.824219 30.0625 2.824219 29.808594 L 2.824219 29.65625 C 2.824219 29.480469 2.839844 29.320312 2.867188 29.191406 C 2.890625 29.097656 2.917969 29.019531 2.945312 28.960938 C 2.96875 28.917969 2.992188 28.886719 3.011719 28.863281 C 3.046875 28.828125 3.074219 28.808594 3.117188 28.789062 C 3.160156 28.769531 3.226562 28.75 3.332031 28.75 L 18.050781 28.75 C 18.175781 28.75 18.246094 28.773438 18.289062 28.796875 C 18.320312 28.816406 18.347656 28.835938 18.375 28.871094 C 18.417969 28.921875 18.464844 29.007812 18.5 29.144531 C 18.535156 29.28125 18.554688 29.457031 18.554688 29.65625 Z M 18.554688 29.808594 "/>
</g>
</svg>
