<?xml version="1.0" encoding="UTF-8"?>
<svg xmlns="http://www.w3.org/2000/svg" xmlns:xlink="http://www.w3.org/1999/xlink" width="px" height="32px" viewBox="0 0 32 32" version="1.1">
<g id="surface1">
<path style=" stroke:none;fill-rule:nonzero;fill:rgb(100%,100%,100%);fill-opacity:1;" d="M 27 28.03125 L 25 28.03125 L 25 29.96875 L 21 29.96875 L 21 28.03125 L 10 28.03125 L 10 29.96875 L 6 29.96875 L 6 28.03125 L 4 28.03125 C 2.894531 28.03125 2 27.136719 2 26.03125 L 2 9.03125 C 2 7.925781 2.894531 7.03125 4 7.03125 L 27 7.03125 C 28.105469 7.03125 29 7.925781 29 9.03125 L 29 26.03125 C 29 27.136719 28.105469 28.03125 27 28.03125 Z M 21 16.03125 L 17 16.03125 L 17 12.03125 L 14 12.03125 L 14 16.03125 L 10 16.03125 L 10 19.03125 L 14 19.03125 L 14 23.03125 L 17 23.03125 L 17 19.03125 L 21 19.03125 Z M 19 4.011719 L 13 4.011719 L 13 6.03125 L 11 6.03125 L 11 5.050781 L 12 5.050781 L 12 2.03125 L 19.957031 2.03125 L 19.957031 5.03125 L 21 5.03125 L 21 6.03125 L 19 6.03125 Z M 19 4.011719 "/>
</g>
</svg>
