<?xml version="1.0" encoding="UTF-8"?>
<svg xmlns="http://www.w3.org/2000/svg" xmlns:xlink="http://www.w3.org/1999/xlink" width="px" height="32px" viewBox="0 0 32 32" version="1.1">
<g id="surface1">
<path style="fill:none;stroke-width:1.5;stroke-linecap:round;stroke-linejoin:miter;stroke:rgb(100%,100%,100%);stroke-opacity:1;stroke-miterlimit:4;" d="M 21.999023 21.999023 L 2.000977 21.999023 " transform="matrix(1.333333,0,0,1.333333,0,0)"/>
<path style="fill:none;stroke-width:1.5;stroke-linecap:round;stroke-linejoin:miter;stroke:rgb(100%,100%,100%);stroke-opacity:1;stroke-miterlimit:4;" d="M 2.000977 11.000977 L 6.061523 7.749023 M 21.999023 11.000977 L 13.875 4.5 C 12.779297 3.624023 11.220703 3.624023 10.125 4.5 L 9.342773 5.124023 " transform="matrix(1.333333,0,0,1.333333,0,0)"/>
<path style="fill:none;stroke-width:1.5;stroke-linecap:round;stroke-linejoin:miter;stroke:rgb(100%,100%,100%);stroke-opacity:1;stroke-miterlimit:4;" d="M 15.500977 5.499023 L 15.500977 3.500977 C 15.500977 3.222656 15.723633 3 15.999023 3 L 18.500977 3 C 18.776367 3 18.999023 3.222656 18.999023 3.500977 L 18.999023 8.499023 " transform="matrix(1.333333,0,0,1.333333,0,0)"/>
<path style="fill:none;stroke-width:1.5;stroke-linecap:round;stroke-linejoin:miter;stroke:rgb(100%,100%,100%);stroke-opacity:1;stroke-miterlimit:4;" d="M 3.999023 21.999023 L 3.999023 9.500977 " transform="matrix(1.333333,0,0,1.333333,0,0)"/>
<path style="fill:none;stroke-width:1.5;stroke-linecap:round;stroke-linejoin:miter;stroke:rgb(100%,100%,100%);stroke-opacity:1;stroke-miterlimit:4;" d="M 20.000977 9.500977 L 20.000977 13.5 M 20.000977 21.999023 L 20.000977 17.499023 " transform="matrix(1.333333,0,0,1.333333,0,0)"/>
<path style="fill:none;stroke-width:1.5;stroke-linecap:round;stroke-linejoin:round;stroke:rgb(100%,100%,100%);stroke-opacity:1;stroke-miterlimit:4;" d="M 15 21.999023 L 15 17.000977 C 15 15.585937 15 14.879883 14.560547 14.44043 C 14.121094 14.000977 13.415039 14.000977 12 14.000977 C 10.584961 14.000977 9.878906 14.000977 9.439453 14.44043 M 9 21.999023 L 9 17.000977 " transform="matrix(1.333333,0,0,1.333333,0,0)"/>
<path style="fill:none;stroke-width:1.5;stroke-linecap:butt;stroke-linejoin:miter;stroke:rgb(100%,100%,100%);stroke-opacity:1;stroke-miterlimit:4;" d="M 14.000977 9.500977 C 14.000977 10.605469 13.104492 11.499023 12 11.499023 C 10.895508 11.499023 9.999023 10.605469 9.999023 9.500977 C 9.999023 8.396484 10.895508 7.5 12 7.5 C 13.104492 7.5 14.000977 8.396484 14.000977 9.500977 Z M 14.000977 9.500977 " transform="matrix(1.333333,0,0,1.333333,0,0)"/>
</g>
</svg>
