<?xml version="1.0" encoding="UTF-8"?>
<svg xmlns="http://www.w3.org/2000/svg" xmlns:xlink="http://www.w3.org/1999/xlink" width="32px" height="32px" viewBox="0 0 32 32" version="1.1">
<g id="surface1">
<path style="fill:none;stroke-width:2;stroke-linecap:butt;stroke-linejoin:round;stroke:rgb(0%,0%,0%);stroke-opacity:1;stroke-miterlimit:10;" d="M 31 19 L 31 13 L 26.574219 13 C 26.324219 12.113281 25.964844 11.269531 25.511719 10.488281 L 29 7 L 25 3 L 21.511719 6.488281 C 21.027344 6.210938 20.523438 5.96875 20 5.761719 L 20 1 L 12 1 L 12 5.761719 C 11.476562 5.964844 10.972656 6.210938 10.488281 6.488281 L 7 3 L 3 7 L 6.488281 10.488281 C 6.035156 11.269531 5.675781 12.113281 5.425781 13 L 1 13 L 1 19 L 5.425781 19 C 5.675781 19.886719 6.035156 20.730469 6.488281 21.511719 L 3 25 L 7 29 L 10.488281 25.511719 C 10.972656 25.789062 11.476562 26.03125 12 26.238281 L 12 31 L 20 31 L 20 26.238281 C 20.523438 26.035156 21.027344 25.789062 21.511719 25.511719 L 25 29 L 29 25 L 25.511719 21.511719 C 25.964844 20.730469 26.324219 19.886719 26.574219 19 Z M 31 19 "/>
<path style="fill:none;stroke-width:2;stroke-linecap:butt;stroke-linejoin:round;stroke:rgb(0%,0%,0%);stroke-opacity:1;stroke-miterlimit:10;" d="M 21 16 C 21 18.761719 18.761719 21 16 21 C 13.238281 21 11 18.761719 11 16 C 11 13.238281 13.238281 11 16 11 C 18.761719 11 21 13.238281 21 16 Z M 21 16 "/>
</g>
</svg>
