<?xml version="1.0" encoding="UTF-8"?>
<svg xmlns="http://www.w3.org/2000/svg" xmlns:xlink="http://www.w3.org/1999/xlink" width="px" height="32px" viewBox="0 0 32 32" version="1.1">
<g id="surface1">
<path style=" stroke:none;fill-rule:nonzero;fill:rgb(100%,100%,100%);fill-opacity:1;" d="M 23 28 C 21.898438 28 20.898438 27.300781 20.5 26.199219 C 20.5 26.101562 20.5 26 20.398438 26 L 11.5 26 C 11.5 26.101562 11.5 26.199219 11.398438 26.199219 C 11.101562 27.300781 10.101562 28 9 28 C 8.398438 28 8 28.398438 8 29 C 8 29.601562 8.398438 30 9 30 L 23 30 C 23.601562 30 24 29.601562 24 29 C 24 28.398438 23.601562 28 23 28 Z M 23 28 "/>
<path style=" stroke:none;fill-rule:nonzero;fill:rgb(100%,100%,100%);fill-opacity:1;" d="M 27 3 L 5 3 C 3.300781 3 2 4.300781 2 6 L 2 14 L 7 14 C 7.601562 14 8 13.601562 8 13 C 8 12.398438 7.601562 12 7 12 L 4 12 C 3.398438 12 3 11.601562 3 11 C 3 10.398438 3.398438 10 4 10 L 8 10 C 8.601562 10 9 9.601562 9 9 C 9 8.398438 8.601562 8 8 8 L 5 8 L 5 7 C 5 6.398438 5.398438 6 6 6 L 18 6 C 18.601562 6 19 6.398438 19 7 L 19 9 L 23 9 C 23.300781 9 23.601562 9.101562 23.800781 9.398438 L 26.800781 13.398438 C 26.898438 13.601562 27 13.800781 27 14 L 27 18 C 27 18.601562 26.601562 19 26 19 L 24.800781 19 C 24.398438 20.199219 23.300781 21 22 21 C 20.699219 21 19.601562 20.199219 19.199219 19 L 13.800781 19 C 13.398438 20.199219 12.300781 21 11 21 C 9.699219 21 8.601562 20.199219 8.199219 19 L 6 19 C 5.398438 19 5 18.601562 5 18 L 5 16 L 2 16 L 2 21 C 2 22.699219 3.300781 24 5 24 L 27 24 C 28.699219 24 30 22.699219 30 21 L 30 6 C 30 4.300781 28.699219 3 27 3 Z M 27 3 "/>
</g>
</svg>
