<?xml version="1.0" encoding="UTF-8"?>
<svg xmlns="http://www.w3.org/2000/svg" xmlns:xlink="http://www.w3.org/1999/xlink" width="32px" height="32px" viewBox="0 0 32 32" version="1.1">
<g id="surface1">
<path style="fill:none;stroke-width:2;stroke-linecap:round;stroke-linejoin:round;stroke:rgb(0%,0%,0%);stroke-opacity:1;stroke-miterlimit:4;" d="M 15.500977 5.499023 L 18.328125 8.329102 M 3 21 L 3.046875 20.668945 C 3.216797 19.491211 3.298828 18.905273 3.489258 18.354492 C 3.65918 17.868164 3.890625 17.405273 4.177734 16.977539 C 4.50293 16.49707 4.921875 16.075195 5.762695 15.237305 L 17.411133 3.588867 C 18.19043 2.806641 19.458984 2.806641 20.238281 3.588867 C 21.020508 4.371094 21.020508 5.636719 20.238281 6.416016 L 8.375977 18.27832 C 7.617187 19.040039 7.236328 19.420898 6.799805 19.725586 C 6.416016 19.992187 6 20.214844 5.563477 20.387695 C 5.071289 20.581055 4.543945 20.689453 3.489258 20.900391 Z M 3 21 " transform="matrix(1.333333,0,0,1.333333,0,0)"/>
</g>
</svg>
