<?xml version="1.0" encoding="UTF-8"?>
<svg xmlns="http://www.w3.org/2000/svg" xmlns:xlink="http://www.w3.org/1999/xlink" width="px" height="32px" viewBox="0 0 32 32" version="1.1">
<g id="surface1">
<path style=" stroke:none;fill-rule:nonzero;fill:rgb(100%,100%,100%);fill-opacity:1;" d="M 9.40625 13.304688 C 10.179688 14.835938 9.613281 16.703125 8.121094 17.550781 C 6.757812 18.03125 5.121094 16.902344 4.46875 15.035156 C 3.695312 13.503906 4.261719 11.636719 5.75 10.789062 C 7.117188 10.3125 8.753906 11.4375 9.40625 13.304688 Z M 20.390625 26.574219 C 19.1875 26.574219 18.035156 26.097656 17.1875 25.246094 C 16.53125 24.59375 15.46875 24.59375 14.8125 25.246094 C 13.039062 27 10.183594 26.992188 8.421875 25.226562 C 6.65625 23.464844 6.648438 20.609375 8.402344 18.835938 C 12.597656 14.636719 19.402344 14.636719 23.597656 18.835938 C 24.894531 20.132812 25.28125 22.082031 24.578125 23.773438 C 23.878906 25.46875 22.222656 26.574219 20.390625 26.574219 Z M 15.546875 10.203125 C 15.757812 12.453125 14.597656 14.40625 12.953125 14.558594 C 11.304688 14.714844 9.796875 13.015625 9.585938 10.765625 C 9.371094 8.515625 10.535156 6.5625 12.179688 6.40625 C 13.824219 6.25 15.332031 7.949219 15.546875 10.203125 Z M 16.453125 10.203125 C 16.242188 12.453125 17.402344 14.40625 19.046875 14.558594 C 20.695312 14.714844 22.199219 13.015625 22.414062 10.765625 C 22.628906 8.515625 21.464844 6.5625 19.820312 6.40625 C 18.175781 6.25 16.667969 7.949219 16.453125 10.203125 Z M 22.59375 13.304688 C 21.820312 14.835938 22.382812 16.703125 23.878906 17.550781 C 25.242188 18.03125 26.878906 16.902344 27.53125 15.035156 C 28.304688 13.503906 27.738281 11.636719 26.25 10.789062 C 24.882812 10.3125 23.246094 11.4375 22.59375 13.304688 Z M 22.59375 13.304688 "/>
</g>
</svg>
