<?xml version="1.0" encoding="UTF-8"?>
<svg xmlns="http://www.w3.org/2000/svg" xmlns:xlink="http://www.w3.org/1999/xlink" width="32px" height="32px" viewBox="0 0 32 32" version="1.1">
<g id="surface1">
<path fill="#8458A4" d="M 5.332031 30.667969 C 4.597656 30.667969 4 30.070312 4 29.332031 L 4 25.332031 C 4 24.597656 4.597656 24 5.332031 24 C 6.070312 24 6.667969 24.597656 6.667969 25.332031 L 6.667969 29.332031 C 6.667969 30.070312 6.070312 30.667969 5.332031 30.667969 Z M 17.332031 29.332031 L 17.332031 20 C 17.332031 19.261719 16.738281 18.667969 16 18.667969 C 15.261719 18.667969 14.667969 19.261719 14.667969 20 L 14.667969 29.332031 C 14.667969 30.070312 15.261719 30.667969 16 30.667969 C 16.738281 30.667969 17.332031 30.070312 17.332031 29.332031 Z M 26.667969 14.667969 C 25.929688 14.667969 25.332031 15.261719 25.332031 16 L 25.332031 29.332031 C 25.332031 30.070312 25.929688 30.667969 26.667969 30.667969 C 27.402344 30.667969 28 30.070312 28 29.332031 L 28 16 C 28 15.261719 27.402344 14.667969 26.667969 14.667969 Z M 27.175781 1.4375 C 27.015625 1.367188 26.839844 1.332031 26.667969 1.332031 L 21.332031 1.332031 C 20.597656 1.332031 20 1.929688 20 2.667969 C 20 3.402344 20.597656 4 21.332031 4 L 23.449219 4 L 16 11.449219 L 11.609375 7.058594 C 11.089844 6.535156 10.246094 6.535156 9.722656 7.058594 L 4.390625 12.390625 C 3.886719 12.914062 3.894531 13.746094 4.40625 14.257812 C 4.921875 14.773438 5.753906 14.78125 6.277344 14.277344 L 10.667969 9.886719 L 15.058594 14.277344 C 15.578125 14.796875 16.421875 14.796875 16.941406 14.277344 L 25.332031 5.886719 L 25.332031 8 C 25.332031 8.738281 25.929688 9.332031 26.667969 9.332031 C 27.402344 9.332031 28 8.738281 28 8 L 28 2.667969 C 28 2.128906 27.675781 1.640625 27.175781 1.4375 Z M 27.175781 1.4375 "/>
</g>
</svg>
