<?xml version="1.0" encoding="UTF-8"?>
<svg xmlns="http://www.w3.org/2000/svg" xmlns:xlink="http://www.w3.org/1999/xlink" width="px" height="32px" viewBox="0 0 32 32" version="1.1">
<g id="surface1">
<path style=" stroke:none;fill-rule:evenodd;fill:rgb(100%,100%,100%);fill-opacity:1;" d="M 2.667969 1.332031 C 1.929688 1.332031 1.332031 1.929688 1.332031 2.667969 C 1.332031 3.402344 1.929688 4 2.667969 4 L 4.292969 4 L 9.042969 23.007812 C 7.644531 23.632812 6.667969 25.035156 6.667969 26.667969 C 6.667969 28.875 8.457031 30.667969 10.667969 30.667969 C 12.875 30.667969 14.667969 28.875 14.667969 26.667969 C 14.667969 26.199219 14.585938 25.75 14.4375 25.332031 L 20.226562 25.332031 C 20.082031 25.75 20 26.199219 20 26.667969 C 20 28.875 21.789062 30.667969 24 30.667969 C 26.210938 30.667969 28 28.875 28 26.667969 C 28 24.457031 26.210938 22.667969 24 22.667969 L 11.707031 22.667969 L 11.042969 20 L 24 20 C 26.753906 20 28.402344 18.261719 29.316406 16.339844 C 30.214844 14.464844 30.523438 12.222656 30.632812 10.589844 C 30.785156 8.320312 28.90625 6.667969 26.828125 6.667969 L 7.707031 6.667969 L 6.878906 3.351562 C 6.582031 2.167969 5.515625 1.332031 4.292969 1.332031 Z M 24 17.332031 L 10.375 17.332031 L 8.375 9.332031 L 26.828125 9.332031 C 27.566406 9.332031 28.007812 9.875 27.972656 10.414062 C 27.871094 11.9375 27.585938 13.777344 26.910156 15.191406 C 26.257812 16.566406 25.359375 17.332031 24 17.332031 Z M 24 27.992188 C 23.269531 27.992188 22.675781 27.398438 22.675781 26.667969 C 22.675781 25.933594 23.269531 25.339844 24 25.339844 C 24.730469 25.339844 25.324219 25.933594 25.324219 26.667969 C 25.324219 27.398438 24.730469 27.992188 24 27.992188 Z M 9.339844 26.667969 C 9.339844 27.398438 9.933594 27.992188 10.667969 27.992188 C 11.398438 27.992188 11.992188 27.398438 11.992188 26.667969 C 11.992188 25.933594 11.398438 25.339844 10.667969 25.339844 C 9.933594 25.339844 9.339844 25.933594 9.339844 26.667969 Z M 9.339844 26.667969 "/>
</g>
</svg>
