<?xml version="1.0" encoding="UTF-8"?>
<svg xmlns="http://www.w3.org/2000/svg" xmlns:xlink="http://www.w3.org/1999/xlink" width="px" height="32px" viewBox="0 0 32 32" version="1.1">
<g id="surface1">
<path style="fill-rule:nonzero;fill:rgb(100%,100%,100%);fill-opacity:1;stroke-width:4;stroke-linecap:butt;stroke-linejoin:miter;stroke:rgb(100%,100%,100%);stroke-opacity:1;stroke-miterlimit:4;" d="M 36 15 C 38.759766 15 40.998047 12.761719 40.998047 10.001953 C 40.998047 7.236328 38.759766 4.998047 36 4.998047 C 33.240234 4.998047 31.001953 7.236328 31.001953 10.001953 C 31.001953 12.761719 33.240234 15 36 15 Z M 36 15 " transform="matrix(0.666667,0,0,0.666667,0,0)"/>
<path style="fill:none;stroke-width:4;stroke-linecap:round;stroke-linejoin:round;stroke:rgb(100%,100%,100%);stroke-opacity:1;stroke-miterlimit:4;" d="M 12 16.769531 L 20.003906 13.998047 L 31.001953 19.248047 L 20.003906 27.445312 L 31.001953 34.681641 L 24.005859 43.998047 " transform="matrix(0.666667,0,0,0.666667,0,0)"/>
<path style="fill:none;stroke-width:4;stroke-linecap:round;stroke-linejoin:round;stroke:rgb(100%,100%,100%);stroke-opacity:1;stroke-miterlimit:4;" d="M 35.320312 21.644531 L 38.003906 23.103516 L 43.998047 17.466797 " transform="matrix(0.666667,0,0,0.666667,0,0)"/>
<path style="fill:none;stroke-width:4;stroke-linecap:round;stroke-linejoin:round;stroke:rgb(100%,100%,100%);stroke-opacity:1;stroke-miterlimit:4;" d="M 16.851562 31.546875 L 13.880859 35.455078 L 4.001953 40.998047 " transform="matrix(0.666667,0,0,0.666667,0,0)"/>
</g>
</svg>
