<?xml version="1.0" encoding="UTF-8"?>
<svg xmlns="http://www.w3.org/2000/svg" xmlns:xlink="http://www.w3.org/1999/xlink" width="px" height="32px" viewBox="0 0 32 32" version="1.1">
<g id="surface1">
<path style=" stroke:none;fill-rule:nonzero;fill:rgb(100%,100%,100%);fill-opacity:1;" d="M 29.863281 10.785156 L 28.464844 10.785156 L 28.464844 2.214844 C 28.46875 1.878906 28.292969 1.570312 28.007812 1.398438 C 27.335938 1.03125 26.605469 0.789062 25.847656 0.691406 C 25.003906 0.554688 23.082031 -0.00390625 16.007812 -0.00390625 L 15.996094 -0.00390625 C 8.921875 -0.00390625 7 0.554688 6.15625 0.691406 C 5.398438 0.789062 4.664062 1.03125 3.996094 1.398438 C 3.707031 1.570312 3.535156 1.878906 3.535156 2.214844 L 3.535156 10.785156 L 2.140625 10.785156 C 2.015625 10.785156 1.894531 10.832031 1.808594 10.921875 C 1.71875 11.007812 1.671875 11.128906 1.671875 11.253906 L 1.671875 16.390625 C 1.671875 16.515625 1.71875 16.636719 1.808594 16.722656 C 1.894531 16.8125 2.015625 16.859375 2.140625 16.859375 L 3.535156 16.859375 L 3.535156 28.839844 C 3.535156 28.964844 3.582031 29.082031 3.671875 29.171875 C 3.761719 29.257812 3.878906 29.308594 4.003906 29.308594 L 4.496094 29.308594 L 4.496094 30.429688 C 4.496094 32.089844 5.730469 32 7.285156 32 C 8.835938 32 10.117188 32.089844 10.117188 30.429688 L 10.117188 29.386719 L 21.886719 29.386719 L 21.886719 30.425781 C 21.886719 32.085938 23.164062 31.996094 24.71875 31.996094 C 26.277344 31.996094 27.511719 32.085938 27.511719 30.425781 L 27.511719 29.304688 L 28 29.304688 C 28.125 29.304688 28.242188 29.253906 28.332031 29.167969 C 28.417969 29.078125 28.464844 28.960938 28.464844 28.835938 L 28.464844 16.859375 L 29.863281 16.859375 C 30.121094 16.859375 30.332031 16.648438 30.332031 16.390625 L 30.332031 11.253906 C 30.332031 11.128906 30.285156 11.007812 30.195312 10.921875 C 30.109375 10.832031 29.988281 10.785156 29.863281 10.785156 Z M 10.210938 2.957031 L 21.792969 2.957031 L 21.792969 6.703125 L 10.210938 6.703125 Z M 11.46875 25.070312 C 11.46875 25.378906 11.214844 25.628906 10.902344 25.628906 L 6.054688 25.628906 C 5.746094 25.628906 5.496094 25.378906 5.492188 25.070312 L 5.492188 23.382812 C 5.492188 23.074219 5.746094 22.820312 6.054688 22.820312 L 10.902344 22.820312 C 11.214844 22.820312 11.46875 23.070312 11.46875 23.382812 Z M 26.511719 25.070312 C 26.507812 25.378906 26.257812 25.628906 25.949219 25.628906 L 21.101562 25.628906 C 20.789062 25.628906 20.539062 25.382812 20.535156 25.070312 L 20.535156 23.382812 C 20.535156 23.070312 20.789062 22.820312 21.101562 22.820312 L 25.949219 22.820312 C 26.257812 22.820312 26.511719 23.074219 26.511719 23.382812 Z M 26.511719 18.714844 C 26.511719 18.972656 26.300781 19.183594 26.042969 19.183594 L 5.960938 19.183594 C 5.703125 19.183594 5.492188 18.976562 5.492188 18.714844 L 5.492188 9.988281 C 5.492188 9.863281 5.542969 9.742188 5.628906 9.65625 C 5.71875 9.566406 5.835938 9.519531 5.960938 9.519531 L 26.042969 9.519531 C 26.167969 9.519531 26.285156 9.566406 26.375 9.65625 C 26.460938 9.746094 26.511719 9.863281 26.511719 9.988281 Z M 26.511719 18.714844 "/>
</g>
</svg>
